<?xml version="1.0" standalone="no"?>
<!DOCTYPE svg PUBLIC "-//W3C//DTD SVG 20010904//EN"
 "http://www.w3.org/TR/2001/REC-SVG-20010904/DTD/svg10.dtd">
<svg version="1.0" xmlns="http://www.w3.org/2000/svg"
 width="419.000000pt" height="419.000000pt" viewBox="0 0 419.000000 419.000000"
 preserveAspectRatio="xMidYMid meet">
<metadata>
Created by potrace 1.11, written by Peter Selinger 2001-2013
</metadata>
<g transform="translate(0.000000,419.000000) scale(0.100000,-0.100000)"
fill="#000000" stroke="none">
<path d="M786 3223 c9 -21 18 -46 21 -55 3 -10 28 -30 57 -46 28 -16 59 -38
68 -49 17 -18 15 -19 -55 -15 -40 3 -84 11 -99 18 -15 8 -37 14 -48 14 -12 0
-36 11 -53 24 -66 50 -248 99 -290 78 -12 -7 -34 -16 -50 -22 -33 -12 -52 -49
-43 -84 3 -14 25 -38 50 -56 43 -29 86 -78 86 -98 0 -5 -9 -12 -20 -15 -13 -3
-22 -17 -26 -36 -4 -17 -12 -31 -19 -31 -7 0 -69 11 -137 24 -213 41 -204 41
-212 14 -3 -13 -6 -40 -6 -60 0 -35 4 -39 86 -93 47 -31 107 -67 133 -79 48
-22 48 -22 34 -49 -16 -31 -13 -39 52 -132 l41 -61 -70 8 c-39 4 -90 15 -114
24 -24 9 -46 14 -48 11 -9 -9 24 -64 56 -90 35 -30 109 -53 203 -62 37 -4 70
-12 73 -17 4 -5 -6 -22 -20 -37 l-27 -28 111 -106 c112 -108 249 -216 308
-245 17 -9 32 -18 32 -21 -1 -3 -12 -19 -25 -36 l-24 -29 -58 28 c-32 15 -69
35 -83 44 -63 40 -180 18 -243 -46 -37 -38 -67 -96 -67 -132 0 -11 -7 -20 -15
-20 -20 0 -19 -25 5 -102 19 -62 22 -65 104 -123 46 -33 89 -71 96 -84 31 -66
275 -303 354 -343 25 -13 49 -18 67 -14 20 4 49 -4 96 -27 89 -42 188 -49 256
-19 60 26 131 93 157 146 33 70 24 186 -15 186 -8 0 -15 6 -15 13 0 7 -8 29
-19 49 l-18 37 80 68 c111 94 120 99 125 85 5 -17 122 -95 141 -95 9 0 33 -11
53 -24 44 -27 65 -29 115 -8 19 8 59 15 87 15 50 0 52 1 101 59 65 78 85 79
237 10 78 -35 120 -48 136 -44 14 3 80 -9 157 -30 123 -33 135 -35 157 -21 19
12 40 13 118 6 113 -10 266 -60 441 -143 96 -45 121 -62 145 -96 16 -22 36
-43 44 -46 39 -12 163 -35 170 -30 4 2 72 -2 151 -10 79 -8 151 -15 160 -15
27 0 104 75 132 130 26 50 36 115 19 122 -5 2 -29 46 -54 98 -59 126 -165 286
-280 424 -78 94 -110 124 -198 184 -58 40 -112 72 -121 72 -10 0 -49 14 -87
30 -39 17 -84 30 -100 30 -16 0 -46 7 -65 15 -20 8 -49 15 -64 15 l-28 -1 30
-25 30 -26 -32 16 c-40 20 -53 20 -53 1 0 -18 4 -19 -105 1 -49 9 -93 23 -98
30 -4 7 -56 28 -115 48 -84 27 -117 33 -154 29 -32 -4 -48 -2 -48 5 0 7 -18
21 -40 32 -22 11 -40 22 -40 23 0 2 13 13 30 25 l30 22 62 -21 c66 -22 150
-29 209 -16 68 14 135 105 146 198 5 42 2 58 -22 102 -35 65 -63 96 -112 122
-20 11 -49 33 -63 48 -20 23 -58 38 -202 81 -97 29 -207 56 -243 60 -41 4 -86
17 -116 32 -63 33 -90 27 -150 -35 -57 -60 -74 -114 -74 -241 0 0 -25 10 -55
21 -135 52 -273 98 -281 94 -4 -3 -28 15 -53 39 -25 25 -57 48 -73 51 -15 3
-74 28 -131 55 -112 55 -161 62 -237 35 -44 -16 -62 -8 -67 28 -2 17 -13 24
-49 32 -40 8 -57 21 -114 83 -73 78 -153 132 -198 132 l-27 0 16 -37z"/>
</g>
</svg>
